<?xml version="1.0" encoding="utf-8"?>
<svg xmlns="http://www.w3.org/2000/svg" viewBox="0 0 1920 1080" width="14797px" height="8173.79px">
  <g transform="matrix(1.0000000000000002, 0, 0, 1, -0.000031000003900771844, -0.000014000001556269126)" id="object-0">
    <rect width="1920" height="1080" style="stroke: rgb(0, 0, 0); stroke-opacity: 0; fill: rgb(50, 48, 47);"/>
    <g transform="matrix(13.841522, 0, 0, 13.841522, -327.581187, 783.417138)" style="">
      <g transform="matrix(1, 0, 0, 1, 55.139091, -114.362997)">
        <g>
          <path d="M16.946 90.761l-.266 2.26c3.39-1.661 7.444-2.792 11.765 3.058l.465-2.393c-2.924-3.922-7.112-5.185-11.964-2.925z" style="fill: rgb(226, 170, 21);"/>
          <path d="M17.145 89.698c4.121-1.795 8.907-1.13 12.098 2.459l.731-1.994c-2.792-3.058-7.91-4.52-12.164-2.925l-.665 2.46z" style="fill: rgb(226, 170, 21);"/>
          <path d="M18.142 86.042c4.188-1.196 9.373.399 12.43 2.792l.731-1.662c-4.121-3.124-7.843-3.855-12.297-3.257l-.864 2.127z" style="fill: rgb(226, 170, 21);"/>
          <path d="M19.804 82.718c3.19-.398 8.309.532 12.031 3.523l.931-1.529c-3.988-3.523-8.708-4.055-11.566-4.254l-1.396 2.26z" style="fill: rgb(226, 170, 21);"/>
          <path d="M21.998 79.528c3.656-.199 8.907 1.994 11.499 4.188l1.263-1.396c-3.589-3.191-7.91-4.587-11.101-4.72l-1.661 1.928zM24.922 76.537c4.055.665 7.444 2.061 10.635 4.653l1.396-1.263c-3.457-2.991-7.312-4.719-9.971-4.919l-2.06 1.529zM28.645 74.144c3.457.798 7.245 3.191 9.106 4.985l1.595-1.13c-2.26-2.393-6.248-4.454-8.176-4.985l-2.525 1.13zM32.965 72.416c2.659 1.196 6.581 3.789 7.378 4.919l1.662-1.063c-1.263-1.462-5.717-4.387-6.116-4.521.001-.001-2.525.332-2.924.665z" style="fill: rgb(226, 170, 21);"/>
          <path d="M49.051 74.875c-7.645 1.928-19.276 8.575-19.875 25.459l1.928.066c.665-12.83 8.309-21.537 19.742-23.797l-1.795-1.728z" style="fill: rgb(226, 170, 21);"/>
          <path d="M52.042 77.667c-12.563 1.462-19.078 11.699-19.809 22.667h2.127c.465-10.104 6.381-19.875 19.41-20.74l-1.728-1.927z" style="fill: rgb(226, 170, 21);"/>
          <path d="M54.767 80.724c-13.958-.266-19.209 13.228-19.276 19.676l2.127-.066c.665-11.833 7.843-17.482 18.413-17.482l-1.264-2.128z" style="fill: rgb(226, 170, 21);"/>
          <path d="M56.496 83.782c-12.896-.798-17.682 10.17-17.881 16.552h1.928c0-9.373 8.242-15.488 17.083-14.292l-1.13-2.26z" style="fill: rgb(226, 170, 21);"/>
          <path d="M57.958 87.039c-13.56-1.994-16.75 11.434-16.418 13.295h1.994c1.33-11.633 10.901-11.899 15.022-10.636l-.598-2.659z" style="fill: rgb(226, 170, 21);"/>
          <path d="M58.756 90.761c-8.043-2.659-13.893 3.589-14.225 9.573h1.928c1.263-8.974 7.977-9.639 12.629-7.246l-.332-2.327zM28.977 101.197l-1.662 20.539h2.26l1.463-20.539h-2.061zM32.101 101.264l-1.196 20.472 2.392.067 1.064-20.606-2.26.067zM35.491 101.197l-.598 20.606 2.326-.067.333-20.539h-2.061zM38.482 101.197l.332 20.606h2.394l-.665-20.539-2.061-.067zM41.54 101.197l1.263 20.539h2.127l-1.396-20.539H41.54zM44.598 101.197l2.06 20.606h2.26l-2.393-20.606h-1.927z" style="fill: rgb(226, 170, 21);"/>
        </g>
      </g>
    </g>
  </g>
</svg>